<?xml version="1.0" encoding="UTF-8"?>
<svg version="1.1" xmlns="http://www.w3.org/2000/svg" width="154" height="32">
<path d="M0 0 C1.32 0 2.64 0 4 0 C4 1.98 4 3.96 4 6 C5.65 4.68 7.3 3.36 9 2 C9.66 3.32 10.32 4.64 11 6 C10.01 6.99 9.02 7.98 8 9 C11.465 8.505 11.465 8.505 15 8 C15.33 9.32 15.66 10.64 16 12 C14.35 12.66 12.7 13.32 11 14 C12.65 14.66 14.3 15.32 16 16 C16 17.32 16 18.64 16 20 C14.02 20 12.04 20 10 20 C11.32 21.65 12.64 23.3 14 25 C12.02 25.99 12.02 25.99 10 27 C9.01 26.01 8.02 25.02 7 24 C7.33 26.31 7.66 28.62 8 31 C6.68 31.33 5.36 31.66 4 32 C3.34 30.35 2.68 28.7 2 27 C1.01 29.475 1.01 29.475 0 32 C-1.32 32 -2.64 32 -4 32 C-4 30.02 -4 28.04 -4 26 C-5.65 27.32 -7.3 28.64 -9 30 C-9.66 28.68 -10.32 27.36 -11 26 C-10.34 25.01 -9.68 24.02 -9 23 C-10.98 23.33 -12.96 23.66 -15 24 C-15.33 22.68 -15.66 21.36 -16 20 C-14.35 19.34 -12.7 18.68 -11 18 C-13.475 17.01 -13.475 17.01 -16 16 C-16 14.68 -16 13.36 -16 12 C-14.02 12 -12.04 12 -10 12 C-11.32 10.35 -12.64 8.7 -14 7 C-12.68 6.34 -11.36 5.68 -10 5 C-9.01 5.99 -8.02 6.98 -7 8 C-7.33 5.69 -7.66 3.38 -8 1 C-6.35 1 -4.7 1 -3 1 C-2.67 2.32 -2.34 3.64 -2 5 C-1.34 3.35 -0.68 1.7 0 0 Z M-4.25 11.6875 C-6.18010547 13.86904316 -6.18010547 13.86904316 -6.4375 16.5625 C-6.15485315 18.99926829 -6.15485315 18.99926829 -4.875 20.8125 C-2.12844028 22.55198782 -0.18153026 22.39769128 3 22 C5.08333333 21.08333333 5.08333333 21.08333333 6 19 C6.00082535 15.42243314 6.00082535 15.42243314 5 12 C1.36691344 9.57794229 -0.62619015 8.96964262 -4.25 11.6875 Z " fill="#3579FF" transform="translate(16,0)"/>
<path d="M0 0 C2.9375 1.375 2.9375 1.375 5 4 C5.76362616 8.37812334 5.96721789 12.34886176 3.6796875 16.25390625 C2 18 2 18 -1.375 18.9375 C-5.37517933 19.00646861 -6.90719133 18.45605394 -10 16 C-11.85152133 12.29695733 -11.45639068 8.04231745 -11 4 C-8.25058714 -0.61901361 -5.10684277 -0.71674986 0 0 Z M-7 6 C-7.33333333 9.5 -7.33333333 9.5 -7 13 C-6.34 13.66 -5.68 14.32 -5 15 C-1.69316534 14.71016731 -1.69316534 14.71016731 1 13 C1.30523962 8.34911285 1.30523962 8.34911285 0 4 C-3.95457848 3.65176193 -3.95457848 3.65176193 -7 6 Z " fill="#3579FF" transform="translate(73,7)"/>
<path d="M0 0 C9 0 9 0 13 2 C15.01612822 4.93992691 15.22054667 7.06749154 14.8125 10.5625 C14.73644531 11.32691406 14.66039062 12.09132813 14.58203125 12.87890625 C13.86491472 15.49229066 13.24084362 16.46730177 11 18 C7.29631297 18.40199208 3.73655831 18.13187853 0 18 C0 12.06 0 6.12 0 0 Z M4 4 C4 7.63 4 11.26 4 15 C8.86132495 14.50847518 8.86132495 14.50847518 11 12 C10.90304884 7.65805064 10.90304884 7.65805064 9 4 C7.35 4 5.7 4 4 4 Z " fill="#3579FF" transform="translate(46,7)"/>
<path d="M0 0 C2.375 1.3125 2.375 1.3125 4 3 C4 3.99 4 4.98 4 6 C2.88625 5.7525 2.88625 5.7525 1.75 5.5 C-1.19006578 4.88074304 -1.19006578 4.88074304 -5 5 C-2.33440687 6.77706209 0.0280615 7.87548273 3 9 C3.33 11.31 3.66 13.62 4 16 C0.81574629 18.41231341 -0.62195414 19.01922267 -4.6875 18.8125 C-8 18 -8 18 -10 16 C-10 14.68 -10 13.36 -10 12 C-8.68 12 -7.36 12 -6 12 C-5.67 12.66 -5.34 13.32 -5 14 C-3.68 14 -2.36 14 -1 14 C-0.67 13.34 -0.34 12.68 0 12 C-2.97 11.01 -5.94 10.02 -9 9 C-9.75 6.75 -9.75 6.75 -10 4 C-7.23141642 -0.09750369 -4.79975584 -0.69996439 0 0 Z " fill="#3579FF" transform="translate(149,7)"/>
<path d="M0 0 C1.32 0 2.64 0 4 0 C4.33 4.62 4.66 9.24 5 14 C6.65 13.67 8.3 13.34 10 13 C10.33 8.71 10.66 4.42 11 0 C12.32 0 13.64 0 15 0 C15.85947387 14.11447089 15.85947387 14.11447089 12.9375 17.4375 C9.08703161 19.48562148 7.14064223 19.22685696 3 18 C1.30078125 16.91796875 1.30078125 16.91796875 0 15 C-0.2172101 12.35003674 -0.28351554 9.94923442 -0.1875 7.3125 C-0.17396484 6.61060547 -0.16042969 5.90871094 -0.14648438 5.18554688 C-0.11120182 3.45670171 -0.05739583 1.72825235 0 0 Z " fill="#3679FF" transform="translate(123,7)"/>
<path d="M0 0 C3.96 0 7.92 0 12 0 C12 1.32 12 2.64 12 4 C9.36 4 6.72 4 4 4 C4 4.99 4 5.98 4 7 C6.64 7 9.28 7 12 7 C12 8.32 12 9.64 12 11 C9.36 11 6.72 11 4 11 C4 12.32 4 13.64 4 15 C6.64 15 9.28 15 12 15 C12 15.99 12 16.98 12 18 C8.04 18 4.08 18 0 18 C0 12.06 0 6.12 0 0 Z " fill="#3579FF" transform="translate(109,7)"/>
<path d="M0 0 C2.4375 1.25 2.4375 1.25 4 3 C4 4.32 4 5.64 4 7 C2.68 7 1.36 7 0 7 C-0.33 6.34 -0.66 5.68 -1 5 C-2.65 5 -4.3 5 -6 5 C-6.68493373 7.85778033 -6.68493373 7.85778033 -7 11 C-6.01 12.485 -6.01 12.485 -5 14 C-2.41619823 14.25030977 -2.41619823 14.25030977 0 14 C0 13.34 0 12.68 0 12 C1.32 12 2.64 12 4 12 C3.64267506 14.59060578 3.1383604 15.84567494 1.375 17.8125 C-2.07753391 19.53876696 -4.32499632 18.93545548 -8 18 C-10.05291022 16.41563635 -10.87780871 15.41297564 -11.6171875 12.9140625 C-12.05541812 9.02310578 -12.28711099 6.6562537 -10.6875 3 C-7.56331965 -0.70273227 -4.66933723 -0.32202326 0 0 Z " fill="#3579FF" transform="translate(91,7)"/>
<path d="M0 0 C1.32 0 2.64 0 4 0 C4 4.95 4 9.9 4 15 C6.31 15 8.62 15 11 15 C11 15.99 11 16.98 11 18 C7.37 18 3.74 18 0 18 C0 12.06 0 6.12 0 0 Z " fill="#3679FF" transform="translate(97,7)"/>
</svg>
